<?xml version="1.0" encoding="utf-8"?>
<!-- Generator: Adobe Illustrator 22.1.0, SVG Export Plug-In . SVG Version: 6.00 Build 0)  -->
<svg version="1.1" id="Lager_1" xmlns="http://www.w3.org/2000/svg" xmlns:xlink="http://www.w3.org/1999/xlink" x="0px" y="0px"
	 viewBox="0 0 84 84" style="enable-background:new 0 0 84 84;" xml:space="preserve">
<style type="text/css">
	.st0{fill:#FFFFFF;}
</style>
<title>ig_icon 2</title>
<desc>Created with Sketch.</desc>
<path class="st0" d="M42.1,1.7c-22.6,0-41,18.4-41,41c0,22.6,18.4,41,41,41s41-18.4,41-41C83.1,20,64.7,1.7,42.1,1.7z M50.3,29.1
	c-0.9-0.3-1.6-0.5-2.2-0.6c-0.7-0.1-1.3-0.1-2-0.1c-0.7,0-1.3,0.1-1.7,0.4c-0.4,0.2-0.7,0.6-0.9,1c-0.2,0.4-0.4,1-0.4,1.7
	c-0.1,0.7-0.1,1.4-0.1,2.4H49V40h-6.1v21.7h-7.2V40h-3.8v-6.1h3.8v-1.6c0-3.5,0.7-6.1,2.2-7.7c1.5-1.6,3.6-2.4,6.4-2.4
	c3,0,5.4,0.4,7.4,1.1L50.3,29.1z"/>
</svg>
