<?xml version="1.0" encoding="utf-8"?>
<!-- Generator: Adobe Illustrator 22.1.0, SVG Export Plug-In . SVG Version: 6.00 Build 0)  -->
<svg version="1.1" id="Lager_1" xmlns="http://www.w3.org/2000/svg" xmlns:xlink="http://www.w3.org/1999/xlink" x="0px" y="0px"
	 viewBox="0 0 84 84" style="enable-background:new 0 0 84 84;" xml:space="preserve">
<style type="text/css">
	.st0{fill:#FFFFFF;}
</style>
<title>ig_icon 2</title>
<desc>Created with Sketch.</desc>
<g>
	<path class="st0" d="M54.1,19.8H30c-6.6,0-12.1,5.4-12.1,12.1v21.5C18,60,23.4,65.4,30,65.4h24.1c6.6,0,12.1-5.4,12.1-12.1V31.8
		C66.2,25.2,60.8,19.8,54.1,19.8z M42.4,53.6c-6,0-10.7-4.9-10.7-11.1s4.9-11.1,10.7-11.1c5.9,0,10.7,4.9,10.7,11.1
		S48.3,53.6,42.4,53.6z M56.4,30.9c-1.5,0-2.6-1.2-2.6-2.6c0-1.5,1.2-2.6,2.6-2.6s2.6,1.2,2.6,2.6C59,29.7,57.8,30.9,56.4,30.9z"/>
	<ellipse class="st0" cx="42.4" cy="42.6" rx="7.5" ry="7.8"/>
	<path class="st0" d="M42.1,1.7c-22.6,0-41,18.4-41,41c0,22.6,18.4,41,41,41s41-18.4,41-41C83.1,20,64.7,1.7,42.1,1.7z M69.4,53.3
		c0,8.4-6.9,15.3-15.3,15.3H30c-8.4,0-15.3-6.8-15.3-15.3V31.8c0-8.4,6.8-15.3,15.3-15.3h24.1c8.4,0,15.3,6.8,15.3,15.3V53.3z"/>
</g>
</svg>
