<?xml version="1.0" encoding="utf-8"?>
<!-- Generator: Adobe Illustrator 22.1.0, SVG Export Plug-In . SVG Version: 6.00 Build 0)  -->
<svg version="1.1" id="Lager_1" xmlns="http://www.w3.org/2000/svg" xmlns:xlink="http://www.w3.org/1999/xlink" x="0px" y="0px"
	 viewBox="0 0 84 84" style="enable-background:new 0 0 84 84;" xml:space="preserve">
<style type="text/css">
	.st0{fill:#FFFFFF;}
</style>
<title>ig_icon 2</title>
<desc>Created with Sketch.</desc>
<g>
	<path class="st0" d="M42.5,38.5l-6.1-3.6c-0.5-0.3-1.2,0.1-1.2,0.7v7.1v7.1c0,0.6,0.7,1,1.2,0.7l6.1-3.6l6.1-3.6
		c0.5-0.4,0.5-1.1,0-1.4L42.5,38.5z"/>
	<path class="st0" d="M42.1,1.7c-22.6,0-41,18.4-41,41c0,22.6,18.4,41,41,41s41-18.4,41-41C83.1,20,64.7,1.7,42.1,1.7z M69.1,56.3
		c0,1.8-1.5,3.2-3.2,3.2H17.5c-1.8,0-3.2-1.5-3.2-3.2V28.6c0-1.8,1.5-3.2,3.2-3.2h48.4c1.8,0,3.2,1.5,3.2,3.2V56.3z"/>
</g>
</svg>
