<svg xmlns="http://www.w3.org/2000/svg" xmlns:xlink="http://www.w3.org/1999/xlink" viewBox="0 0 478.03 127.81"><defs><style>.cls-1,.cls-9{fill:#828282;}.cls-1{stroke:#828282;stroke-linejoin:round;}.cls-2{fill:url(#Namnlös_övertoning_108);}.cls-3{fill:url(#Namnlös_övertoning_80);}.cls-4{fill:url(#Namnlös_övertoning_93);}.cls-5{fill:url(#Namnlös_övertoning_101);}.cls-6{fill:url(#Namnlös_övertoning_80-2);}.cls-7{fill:url(#Namnlös_övertoning_120);}.cls-8{fill:url(#Namnlös_övertoning_109);}</style><linearGradient id="Namnlös_övertoning_108" x1="41.33" y1="142.52" x2="103.69" y2="142.52" gradientUnits="userSpaceOnUse"><stop offset="0" stop-color="#7c5006"/><stop offset="0.01" stop-color="#7e5208"/><stop offset="0.16" stop-color="#976c24"/><stop offset="0.32" stop-color="#ab803a"/><stop offset="0.5" stop-color="#b98e49"/><stop offset="0.7" stop-color="#c19652"/><stop offset="1" stop-color="#c49955"/></linearGradient><linearGradient id="Namnlös_övertoning_80" x1="235.36" y1="142.43" x2="273.02" y2="142.43" gradientUnits="userSpaceOnUse"><stop offset="0" stop-color="#c49955"/><stop offset="0.01" stop-color="#c79c59"/><stop offset="0.08" stop-color="#dab174"/><stop offset="0.16" stop-color="#e8c28a"/><stop offset="0.25" stop-color="#f3ce99"/><stop offset="0.35" stop-color="#f9d5a2"/><stop offset="0.5" stop-color="#fbd7a5"/><stop offset="1" stop-color="#c49955"/></linearGradient><linearGradient id="Namnlös_övertoning_93" x1="277.75" y1="142.3" x2="338.41" y2="142.3" gradientUnits="userSpaceOnUse"><stop offset="0.02" stop-color="#fbd7a5"/><stop offset="0.73" stop-color="#c49955"/></linearGradient><linearGradient id="Namnlös_övertoning_101" x1="341.3" y1="143.48" x2="405.2" y2="143.48" gradientUnits="userSpaceOnUse"><stop offset="0" stop-color="#fbd7a5"/><stop offset="0.5" stop-color="#c49955"/><stop offset="0.5" stop-color="#c29652"/><stop offset="0.58" stop-color="#a87d37"/><stop offset="0.66" stop-color="#956921"/><stop offset="0.75" stop-color="#875b12"/><stop offset="0.85" stop-color="#7f5309"/><stop offset="1" stop-color="#7c5006"/></linearGradient><linearGradient id="Namnlös_övertoning_80-2" x1="192.02" y1="142.45" x2="229.93" y2="142.45" xlink:href="#Namnlös_övertoning_80"/><linearGradient id="Namnlös_övertoning_120" x1="168.18" y1="64.26" x2="168.18" y2="65.02" gradientUnits="userSpaceOnUse"><stop offset="0" stop-color="#c49955"/><stop offset="0.5" stop-color="#cca261"/><stop offset="1" stop-color="#d0a666"/></linearGradient><linearGradient id="Namnlös_övertoning_109" x1="106.02" y1="142.89" x2="143.92" y2="142.89" gradientUnits="userSpaceOnUse"><stop offset="0" stop-color="#7c5006"/><stop offset="0.1" stop-color="#996f2a"/><stop offset="0.23" stop-color="#b78e4f"/><stop offset="0.36" stop-color="#cfa96f"/><stop offset="0.5" stop-color="#e3bd87"/><stop offset="0.65" stop-color="#f0cc98"/><stop offset="0.81" stop-color="#f8d4a2"/><stop offset="1" stop-color="#fbd7a5"/></linearGradient></defs><title>loops_dance_studio</title><g id="Lager_2" data-name="Lager 2"><polygon class="cls-1" points="372.69 0.5 370.82 0.5 370.82 127.31 372.66 127.29 372.69 0.5"/></g><g id="Lager_7" data-name="Lager 7"><path class="cls-2" d="M101.19,191.15H43.83a2.49,2.49,0,0,1-2.5-2.5V96.38a2.5,2.5,0,0,1,2.5-2.5h1.86a2.49,2.49,0,0,1,2.5,2.5v87.4l53-.05h0a2.49,2.49,0,0,1,2.5,2.5v2.42A2.49,2.49,0,0,1,101.19,191.15Z" transform="translate(-41.33 -75.14)"/><path class="cls-3" d="M240.58,191.15h-2.72a2.5,2.5,0,0,1-2.5-2.5V187a2.5,2.5,0,0,1,2.44-2.5l2.72-.06c16.66-.5,25.08-22.14,24.79-43.25-.27-19.62-8.36-40.75-25.48-40.79l-2.05-.06a2.5,2.5,0,0,1-2.42-2.5V96.21a2.5,2.5,0,0,1,2.5-2.5h2c22.86.1,33.22,25.29,33.17,48.65C273,166.61,261.8,191.15,240.58,191.15Z" transform="translate(-41.33 -75.14)"/><path class="cls-4" d="M281.27,190.93h-1a2.5,2.5,0,0,1-2.5-2.5v-36a2.51,2.51,0,0,1,2.5-2.5l25.72,0c17.13-.31,24.85-13.34,24.74-25.31-.14-16.91-13.31-24.63-25.48-24.64l-25,.1a2.42,2.42,0,0,1-1.77-.73,2.52,2.52,0,0,1-.74-1.77V96.17a2.5,2.5,0,0,1,2.5-2.5h25c22.82.06,33.19,16.12,33.17,31,0,15.52-11.17,31.24-32.44,31.24h0l-22.1-.07-.09,32.58A2.49,2.49,0,0,1,281.27,190.93Z" transform="translate(-41.33 -75.14)"/><path class="cls-5" d="M372,192.12H347a2.5,2.5,0,0,1-2.5-2.5v-1.33a2.51,2.51,0,0,1,2.5-2.5h0l25,.1c12.2,0,25.38-6.53,25.48-20.79.06-10-7.66-20.92-24.78-21.17-13.22-.19-23.65-5.47-28.61-14.48a21.81,21.81,0,0,1,.39-22.13c5.09-8.31,15.27-12.84,28-12.46h13.59a2.49,2.49,0,0,1,2.5,2.47l0,1.32a2.51,2.51,0,0,1-.73,1.78,2.47,2.47,0,0,1-1.77.74h0l-13.69,0c-16.4.07-23.8,9-23.85,17.84s7.53,18.61,24.26,18.87c21.39.33,32.49,14.15,32.41,27.65C405.12,178.28,394.7,192.06,372,192.12Z" transform="translate(-41.33 -75.14)"/><path class="cls-6" d="M225.42,191.18c-22.85,0-33.33-25.12-33.4-48.47-.07-24.25,11-48.86,32.19-49l2.69,0a2.6,2.6,0,0,1,1.79.72,2.5,2.5,0,0,1,.74,1.77v1.66a2.5,2.5,0,0,1-2.41,2.51l-2.72.1c-16.67.59-25,22.26-24.58,43.37.38,19.58,8.56,40.64,25.64,40.64h.06l2,0a2.51,2.51,0,0,1,2.47,2.49v1.65a2.51,2.51,0,0,1-2.47,2.51l-2,0Z" transform="translate(-41.33 -75.14)"/><path class="cls-7" d="M154.57,191.6h-2.72a2.5,2.5,0,0,1-2.5-2.5v-1.66a2.5,2.5,0,0,1,2.44-2.5l2.72-.07c16.66-.5,25.09-22.13,24.79-43.25-.27-19.62-8.36-40.75-25.48-40.78l-2-.07a2.5,2.5,0,0,1-2.43-2.49V96.66a2.5,2.5,0,0,1,2.5-2.5h2c22.87.1,33.22,25.28,33.17,48.64C187,167.05,175.79,191.6,154.57,191.6Z" transform="translate(-41.33 -75.14)"/><path class="cls-8" d="M139.41,191.62c-22.84,0-33.32-25.11-33.39-48.46-.08-24.26,11-48.86,32.18-49l2.7,0a2.45,2.45,0,0,1,1.78.72,2.53,2.53,0,0,1,.75,1.77v1.66a2.5,2.5,0,0,1-2.41,2.51l-2.72.1c-16.67.58-25,22.26-24.57,43.36.37,19.59,8.56,40.64,25.63,40.64h.07l2,0a2.5,2.5,0,0,1,2.47,2.49v1.64a2.51,2.51,0,0,1-2.47,2.52l-2,0Z" transform="translate(-41.33 -75.14)"/></g><g id="Lager_5" data-name="Lager 5"><path class="cls-9" d="M425.82,138.15a37.38,37.38,0,0,1,5.55-.42c3.75,0,6.42.87,8.19,2.52a9.31,9.31,0,0,1,2.85,7.26,10.69,10.69,0,0,1-2.91,7.86c-1.89,1.89-5,2.91-8.94,2.91a42.13,42.13,0,0,1-4.74-.24ZM428.43,156a16.48,16.48,0,0,0,2.64.15c5.58,0,8.61-3.12,8.61-8.58,0-4.77-2.67-7.8-8.19-7.8a14.83,14.83,0,0,0-3.06.27Z" transform="translate(-41.33 -75.14)"/><path class="cls-9" d="M448.65,151.74l-2.1,6.36h-2.7l6.87-20.22h3.15l6.9,20.22H458l-2.16-6.36Zm6.63-2-2-5.82c-.45-1.32-.75-2.52-1.05-3.69h-.06c-.3,1.2-.63,2.43-1,3.66l-2,5.85Z" transform="translate(-41.33 -75.14)"/><path class="cls-9" d="M463.74,158.1V137.88h2.85l6.48,10.23a57.24,57.24,0,0,1,3.63,6.57l.06,0c-.24-2.7-.3-5.16-.3-8.31v-8.46h2.46V158.1h-2.64l-6.42-10.26a64.18,64.18,0,0,1-3.78-6.75l-.09,0c.15,2.55.21,5,.21,8.34v8.64Z" transform="translate(-41.33 -75.14)"/><path class="cls-9" d="M497.61,157.44a13,13,0,0,1-5.34,1c-5.7,0-10-3.6-10-10.23,0-6.33,4.29-10.62,10.56-10.62a10.84,10.84,0,0,1,4.8.9l-.63,2.13a9.51,9.51,0,0,0-4.08-.84c-4.74,0-7.89,3-7.89,8.34,0,4.95,2.85,8.13,7.77,8.13a10.45,10.45,0,0,0,4.26-.84Z" transform="translate(-41.33 -75.14)"/><path class="cls-9" d="M511.35,148.62h-7.86v7.29h8.76v2.19H500.88V137.88H511.8v2.19h-8.31v6.39h7.86Z" transform="translate(-41.33 -75.14)"/></g><g id="Lager_3" data-name="Lager 3"><path class="cls-9" d="M425.46,184.92a9.25,9.25,0,0,0,4.68,1.32c2.67,0,4.23-1.41,4.23-3.45,0-1.89-1.08-3-3.81-4-3.3-1.17-5.34-2.88-5.34-5.73,0-3.15,2.61-5.49,6.54-5.49a9.19,9.19,0,0,1,4.47,1l-.72,2.13a8.05,8.05,0,0,0-3.84-1c-2.76,0-3.81,1.65-3.81,3,0,1.89,1.23,2.82,4,3.9,3.42,1.32,5.16,3,5.16,5.94s-2.31,5.82-7.08,5.82a10.45,10.45,0,0,1-5.16-1.29Z" transform="translate(-41.33 -75.14)"/><path class="cls-9" d="M444.45,170.1H438.3v-2.22h15v2.22h-6.18v18h-2.64Z" transform="translate(-41.33 -75.14)"/><path class="cls-9" d="M458.13,167.88v12c0,4.53,2,6.45,4.71,6.45,3,0,4.92-2,4.92-6.45v-12h2.64v11.79c0,6.21-3.27,8.76-7.65,8.76-4.14,0-7.26-2.37-7.26-8.64V167.88Z" transform="translate(-41.33 -75.14)"/><path class="cls-9" d="M474.93,168.15a37.38,37.38,0,0,1,5.55-.42c3.75,0,6.42.87,8.19,2.52a9.31,9.31,0,0,1,2.85,7.26,10.69,10.69,0,0,1-2.91,7.86c-1.89,1.89-5,2.91-8.94,2.91a42.13,42.13,0,0,1-4.74-.24ZM477.54,186a16.48,16.48,0,0,0,2.64.15c5.58,0,8.61-3.12,8.61-8.58,0-4.77-2.67-7.8-8.19-7.8a14.83,14.83,0,0,0-3.06.27Z" transform="translate(-41.33 -75.14)"/><path class="cls-9" d="M497.52,167.88V188.1h-2.61V167.88Z" transform="translate(-41.33 -75.14)"/><path class="cls-9" d="M519.36,177.78c0,7-4.23,10.65-9.39,10.65-5.34,0-9.09-4.14-9.09-10.26,0-6.42,4-10.62,9.39-10.62S519.36,171.78,519.36,177.78Zm-15.69.33c0,4.32,2.34,8.19,6.45,8.19s6.48-3.81,6.48-8.4c0-4-2.1-8.22-6.45-8.22S503.67,173.67,503.67,178.11Z" transform="translate(-41.33 -75.14)"/></g></svg>